<?xml version="1.0" encoding="UTF-8" standalone="no"?>
<svg width="100%" height="100%" viewBox="0 0 512 512" version="1.1" xmlns="http://www.w3.org/2000/svg" xmlns:xlink="http://www.w3.org/1999/xlink" xml:space="preserve" style="fill-rule:evenodd;clip-rule:evenodd;stroke-linecap:round;stroke-linejoin:round;stroke-miterlimit:1.5;">
    <g id="Calque1">
        <g transform="matrix(1,0,0,0.910156,-19,2.33594)">
            <path d="M434,77.386C434,49.006 413.061,26 387.231,26C294.995,26 98.5,26 98.5,26L98.5,469L387.231,469C413.061,469 434,445.994 434,417.614C434,332.36 434,162.64 434,77.386Z" style="fill:rgb(253,167,8);"/>
        </g>
        <g transform="matrix(1.08942,0,0,0.910156,-27.8078,23.2695)">
            <path d="M434,77.386C434,49.006 414.78,26 391.07,26C300.575,26 98.5,26 98.5,26L98.5,469L391.07,469C414.78,469 434,445.994 434,417.614C434,332.36 434,162.64 434,77.386Z" style="fill:white;"/>
        </g>
        <g transform="matrix(1,0,0,1,-42.5,-4.26326e-14)">
            <path d="M122,26C96.595,26 76,46.595 76,72L99,72C99,59.297 109.297,49 122,49L122,26Z" style="fill:rgb(253,167,8);"/>
        </g>
        <g transform="matrix(1,0,0,-1,-42.5,144)">
            <path d="M122,26C96.595,26 76,46.595 76,72L99,72C99,59.297 109.297,49 122,49L122,26Z" style="fill:rgb(253,167,8);"/>
        </g>
        <g transform="matrix(1.20268,0,0,0.889391,-38.9642,71.8758)">
            <path d="M434,78.585C434,64.639 429.903,51.264 422.61,41.402C415.317,31.54 405.426,26 395.113,26C306.757,26 98.5,26 98.5,26L98.5,469L395.113,469C405.426,469 415.317,463.46 422.61,453.598C429.903,443.736 434,430.361 434,416.415C434,331.179 434,163.821 434,78.585Z" style="fill:rgb(253,167,8);"/>
        </g>
        <g transform="matrix(0.380165,0,0,1,13.5413,-1.65876e-05)">
            <rect x="52.5" y="72" width="60.5" height="371" style="fill:rgb(253,167,8);"/>
        </g>
        <g transform="matrix(0.570797,0,0,0.969003,25.5,36.7318)">
            <rect x="52.5" y="72" width="60.5" height="371" style="fill:rgb(253,167,8);"/>
        </g>
        <g transform="matrix(1,0,0,-1,-42.5,515)">
            <path d="M122,26C96.595,26 76,46.595 76,72L99,72C99,59.297 109.297,49 122,49L122,26Z" style="fill:rgb(253,167,8);"/>
        </g>
        <g transform="matrix(0.801666,0,0,1,-112.652,0)">
            <circle cx="235.033" cy="70.967" r="24.033" style="fill:white;"/>
        </g>
        <path d="M483,232L390.444,232C383.961,232 377.744,234.575 373.16,239.16C368.575,243.744 366,249.961 366,256.444L366,327.556C366,334.039 368.575,340.256 373.16,344.84C377.744,349.425 383.961,352 390.444,352L483,352L483,232Z" style="fill:none;stroke:white;stroke-width:23.61px;"/>
    </g>
</svg>
